<?xml version="1.0" encoding="UTF-8"?>
<svg xmlns="http://www.w3.org/2000/svg" xmlns:xlink="http://www.w3.org/1999/xlink" width="204px" height="70px" viewBox="0 0 204 70" version="1.1">
<defs>
<filter id="alpha" filterUnits="objectBoundingBox" x="0%" y="0%" width="100%" height="100%">
  <feColorMatrix type="matrix" in="SourceGraphic" values="0 0 0 0 1 0 0 0 0 1 0 0 0 0 1 0 0 0 1 0"/>
</filter>
<mask id="mask0">
  <g filter="url(#alpha)">
<rect x="0" y="0" width="204" height="70" style="fill:rgb(0%,0%,0%);fill-opacity:0.866667;stroke:none;"/>
  </g>
</mask>
<clipPath id="clip1">
  <rect x="0" y="0" width="204" height="70"/>
</clipPath>
<g id="surface5" clip-path="url(#clip1)">
<path style=" stroke:none;fill-rule:evenodd;fill:rgb(99.607843%,100%,99.607843%);fill-opacity:1;" d="M 47.785156 -0.28125 C 49.835938 -0.28125 51.886719 -0.28125 53.933594 -0.28125 C 48.625 6.628906 43.40625 13.628906 38.285156 20.71875 C 45.894531 23.140625 53.53125 25.472656 61.199219 27.71875 C 61.53125 29.6875 60.878906 31.367188 59.242188 32.761719 C 49.148438 29.882812 39.183594 26.710938 29.34375 23.238281 C 35.503906 15.390625 41.652344 7.550781 47.785156 -0.28125 Z M 47.785156 -0.28125 "/>
</g>
<mask id="mask1">
  <g filter="url(#alpha)">
<rect x="0" y="0" width="204" height="70" style="fill:rgb(0%,0%,0%);fill-opacity:0.976471;stroke:none;"/>
  </g>
</mask>
<clipPath id="clip2">
  <rect x="0" y="0" width="204" height="70"/>
</clipPath>
<g id="surface8" clip-path="url(#clip2)">
<path style=" stroke:none;fill-rule:evenodd;fill:rgb(0.392157%,63.529412%,84.705882%);fill-opacity:1;" d="M 38.285156 0.28125 C 39.222656 1.121094 40.246094 1.867188 41.359375 2.519531 C 41.730469 3.078125 41.730469 3.640625 41.359375 4.199219 C 36.207031 10.667969 31.269531 17.296875 26.546875 24.078125 C 34.085938 26.722656 41.726562 29.148438 49.464844 31.359375 C 49.648438 31.546875 49.835938 31.734375 50.023438 31.921875 C 49.277344 33.226562 48.53125 34.535156 47.785156 35.839844 C 37.417969 33.4375 27.171875 30.449219 17.046875 26.878906 C 24.03125 17.921875 31.113281 9.054688 38.285156 0.28125 Z M 38.285156 0.28125 "/>
</g>
<mask id="mask2">
  <g filter="url(#alpha)">
<rect x="0" y="0" width="204" height="70" style="fill:rgb(0%,0%,0%);fill-opacity:0.792157;stroke:none;"/>
  </g>
</mask>
<clipPath id="clip3">
  <rect x="0" y="0" width="204" height="70"/>
</clipPath>
<g id="surface11" clip-path="url(#clip3)">
<path style=" stroke:none;fill-rule:evenodd;fill:rgb(0.392157%,63.529412%,84.705882%);fill-opacity:1;" d="M 70.703125 13.160156 C 74.207031 13.648438 75.230469 15.515625 73.773438 18.761719 C 70.914062 20.386719 68.957031 19.640625 67.90625 16.519531 C 68.464844 15.03125 69.394531 13.914062 70.703125 13.160156 Z M 70.703125 13.160156 "/>
</g>
<mask id="mask3">
  <g filter="url(#alpha)">
<rect x="0" y="0" width="204" height="70" style="fill:rgb(0%,0%,0%);fill-opacity:0.803922;stroke:none;"/>
  </g>
</mask>
<clipPath id="clip4">
  <rect x="0" y="0" width="204" height="70"/>
</clipPath>
<g id="surface14" clip-path="url(#clip4)">
<path style=" stroke:none;fill-rule:evenodd;fill:rgb(0.392157%,63.529412%,84.705882%);fill-opacity:1;" d="M 105.351562 13.160156 C 108.625 13.359375 109.835938 15.039062 108.984375 18.199219 C 106.152344 20.644531 104.195312 20.082031 103.117188 16.519531 C 103.210938 14.9375 103.957031 13.816406 105.351562 13.160156 Z M 105.351562 13.160156 "/>
</g>
<mask id="mask4">
  <g filter="url(#alpha)">
<rect x="0" y="0" width="204" height="70" style="fill:rgb(0%,0%,0%);fill-opacity:0.839216;stroke:none;"/>
  </g>
</mask>
<clipPath id="clip5">
  <rect x="0" y="0" width="204" height="70"/>
</clipPath>
<g id="surface17" clip-path="url(#clip5)">
<path style=" stroke:none;fill-rule:evenodd;fill:rgb(0.392157%,63.529412%,84.705882%);fill-opacity:1;" d="M 124.355469 26.039062 C 129.992188 24.683594 134.371094 26.363281 137.492188 31.078125 C 138.289062 38.886719 138.570312 46.726562 138.328125 54.601562 C 136.839844 54.601562 135.347656 54.601562 133.859375 54.601562 C 133.949219 47.878906 133.859375 41.15625 133.578125 34.441406 C 132.585938 31.300781 130.445312 29.808594 127.152344 29.960938 C 123.132812 29.785156 120.617188 31.652344 119.605469 35.558594 C 119.324219 41.902344 119.234375 48.25 119.324219 54.601562 C 117.835938 54.601562 116.34375 54.601562 114.855469 54.601562 C 114.855469 45.265625 114.855469 35.933594 114.855469 26.601562 C 116.160156 26.601562 117.464844 26.601562 118.765625 26.601562 C 118.675781 27.734375 118.769531 28.855469 119.046875 29.960938 C 120.605469 28.300781 122.375 26.992188 124.355469 26.039062 Z M 124.355469 26.039062 "/>
</g>
<mask id="mask5">
  <g filter="url(#alpha)">
<rect x="0" y="0" width="204" height="70" style="fill:rgb(0%,0%,0%);fill-opacity:0.839216;stroke:none;"/>
  </g>
</mask>
<clipPath id="clip6">
  <rect x="0" y="0" width="204" height="70"/>
</clipPath>
<g id="surface20" clip-path="url(#clip6)">
<path style=" stroke:none;fill-rule:evenodd;fill:rgb(0.392157%,63.529412%,84.705882%);fill-opacity:1;" d="M 152.859375 26.039062 C 156.628906 25.855469 160.355469 26.136719 164.039062 26.878906 C 164.550781 27.089844 165.015625 27.371094 165.4375 27.71875 C 165.894531 29.246094 165.800781 30.742188 165.15625 32.199219 C 158.824219 28.59375 153.140625 29.34375 148.109375 34.441406 C 144.367188 42.433594 146.511719 48.125 154.535156 51.519531 C 158.605469 52.246094 162.332031 51.40625 165.714844 49 C 166.359375 50.460938 166.453125 51.953125 165.996094 53.480469 C 161.066406 55.839844 155.945312 56.304688 150.625 54.878906 C 144.695312 52.152344 141.902344 47.484375 142.242188 40.878906 C 142.234375 33.332031 145.773438 28.386719 152.859375 26.039062 Z M 152.859375 26.039062 "/>
</g>
<mask id="mask6">
  <g filter="url(#alpha)">
<rect x="0" y="0" width="204" height="70" style="fill:rgb(0%,0%,0%);fill-opacity:0.85098;stroke:none;"/>
  </g>
</mask>
<clipPath id="clip7">
  <rect x="0" y="0" width="204" height="70"/>
</clipPath>
<g id="surface23" clip-path="url(#clip7)">
<path style=" stroke:none;fill-rule:evenodd;fill:rgb(0.392157%,63.529412%,84.705882%);fill-opacity:1;" d="M 178.570312 26.039062 C 191.964844 25.371094 198.023438 31.714844 196.734375 45.078125 C 193.59375 52.703125 187.910156 56.15625 179.6875 55.441406 C 170.753906 52.941406 166.75 47.0625 167.671875 37.800781 C 169.035156 31.660156 172.667969 27.742188 178.570312 26.039062 Z M 179.6875 29.960938 C 189.261719 29.753906 193.453125 34.417969 192.261719 43.960938 C 190.523438 48.695312 187.167969 51.308594 182.203125 51.800781 C 175.917969 50.886719 172.472656 47.246094 171.863281 40.878906 C 172.242188 35.566406 174.851562 31.925781 179.6875 29.960938 Z M 179.6875 29.960938 "/>
</g>
<mask id="mask7">
  <g filter="url(#alpha)">
<rect x="0" y="0" width="204" height="70" style="fill:rgb(0%,0%,0%);fill-opacity:0.839216;stroke:none;"/>
  </g>
</mask>
<clipPath id="clip8">
  <rect x="0" y="0" width="204" height="70"/>
</clipPath>
<g id="surface26" clip-path="url(#clip8)">
<path style=" stroke:none;fill-rule:evenodd;fill:rgb(0.392157%,63.529412%,84.705882%);fill-opacity:1;" d="M 69.023438 26.601562 C 70.515625 26.601562 72.003906 26.601562 73.496094 26.601562 C 73.496094 35.933594 73.496094 45.265625 73.496094 54.601562 C 72.003906 54.601562 70.515625 54.601562 69.023438 54.601562 C 69.023438 45.265625 69.023438 35.933594 69.023438 26.601562 Z M 69.023438 26.601562 "/>
</g>
<mask id="mask8">
  <g filter="url(#alpha)">
<rect x="0" y="0" width="204" height="70" style="fill:rgb(0%,0%,0%);fill-opacity:0.823529;stroke:none;"/>
  </g>
</mask>
<clipPath id="clip9">
  <rect x="0" y="0" width="204" height="70"/>
</clipPath>
<g id="surface29" clip-path="url(#clip9)">
<path style=" stroke:none;fill-rule:evenodd;fill:rgb(0.392157%,63.529412%,84.705882%);fill-opacity:1;" d="M 76.289062 26.601562 C 77.824219 26.425781 79.316406 26.609375 80.761719 27.160156 C 83.320312 33.589844 86.019531 39.933594 88.867188 46.199219 C 91.660156 39.757812 94.175781 33.222656 96.410156 26.601562 C 98.128906 26.421875 99.804688 26.609375 101.441406 27.160156 C 97.304688 36.890625 93.113281 46.597656 88.867188 56.28125 C 84.074219 46.636719 79.882812 36.742188 76.289062 26.601562 Z M 76.289062 26.601562 "/>
</g>
<mask id="mask9">
  <g filter="url(#alpha)">
<rect x="0" y="0" width="204" height="70" style="fill:rgb(0%,0%,0%);fill-opacity:0.839216;stroke:none;"/>
  </g>
</mask>
<clipPath id="clip10">
  <rect x="0" y="0" width="204" height="70"/>
</clipPath>
<g id="surface32" clip-path="url(#clip10)">
<path style=" stroke:none;fill-rule:evenodd;fill:rgb(0.392157%,63.529412%,84.705882%);fill-opacity:1;" d="M 103.675781 26.601562 C 105.167969 26.601562 106.65625 26.601562 108.148438 26.601562 C 108.148438 35.933594 108.148438 45.265625 108.148438 54.601562 C 106.65625 54.601562 105.167969 54.601562 103.675781 54.601562 C 103.675781 45.265625 103.675781 35.933594 103.675781 26.601562 Z M 103.675781 26.601562 "/>
</g>
<mask id="mask10">
  <g filter="url(#alpha)">
<rect x="0" y="0" width="204" height="70" style="fill:rgb(0%,0%,0%);fill-opacity:0.866667;stroke:none;"/>
  </g>
</mask>
<clipPath id="clip11">
  <rect x="0" y="0" width="204" height="70"/>
</clipPath>
<g id="surface35" clip-path="url(#clip11)">
<path style=" stroke:none;fill-rule:evenodd;fill:rgb(99.607843%,100%,99.607843%);fill-opacity:1;" d="M 19.839844 31.078125 C 27.933594 32.636719 35.757812 34.878906 43.316406 37.800781 C 35.703125 47.664062 27.972656 57.371094 20.121094 66.921875 C 18.785156 66.484375 17.574219 65.832031 16.488281 64.960938 C 15.957031 64.558594 15.863281 64.089844 16.207031 63.558594 C 22.261719 55.625 28.316406 47.691406 34.371094 39.761719 C 29.367188 38.179688 24.335938 36.6875 19.28125 35.28125 C 19.027344 35.046875 18.839844 34.769531 18.722656 34.441406 C 19.210938 33.347656 19.582031 32.226562 19.839844 31.078125 Z M 19.839844 31.078125 "/>
</g>
<mask id="mask11">
  <g filter="url(#alpha)">
<rect x="0" y="0" width="204" height="70" style="fill:rgb(0%,0%,0%);fill-opacity:0.980392;stroke:none;"/>
  </g>
</mask>
<clipPath id="clip12">
  <rect x="0" y="0" width="204" height="70"/>
</clipPath>
<g id="surface38" clip-path="url(#clip12)">
<path style=" stroke:none;fill-rule:evenodd;fill:rgb(0.392157%,63.529412%,84.705882%);fill-opacity:1;" d="M 8.664062 69.71875 C 8.105469 69.71875 7.546875 69.71875 6.984375 69.71875 C 6.0625 68.898438 5.039062 68.148438 3.914062 67.480469 C 3.539062 67.105469 3.539062 66.734375 3.914062 66.359375 C 9.96875 58.425781 16.023438 50.492188 22.078125 42.558594 C 17.078125 40.953125 12.050781 39.460938 6.984375 38.078125 C 6.550781 37.089844 6.644531 36.0625 7.265625 35 C 7.640625 34.394531 8.203125 34.023438 8.941406 33.878906 C 16.554688 35.808594 24.101562 37.957031 31.578125 40.320312 C 23.734375 49.984375 16.09375 59.785156 8.664062 69.71875 Z M 8.664062 69.71875 "/>
</g>
</defs>
<g id="surface1">
<use xlink:href="#surface5" mask="url(#mask0)"/>
<use xlink:href="#surface8" mask="url(#mask1)"/>
<use xlink:href="#surface11" mask="url(#mask2)"/>
<use xlink:href="#surface14" mask="url(#mask3)"/>
<use xlink:href="#surface17" mask="url(#mask4)"/>
<use xlink:href="#surface20" mask="url(#mask5)"/>
<use xlink:href="#surface23" mask="url(#mask6)"/>
<use xlink:href="#surface26" mask="url(#mask7)"/>
<use xlink:href="#surface29" mask="url(#mask8)"/>
<use xlink:href="#surface32" mask="url(#mask9)"/>
<use xlink:href="#surface35" mask="url(#mask10)"/>
<use xlink:href="#surface38" mask="url(#mask11)"/>
</g>
</svg>
