<?xml version="1.0" encoding="iso-8859-1"?>
<!-- Uploaded to: SVG Repo, www.svgrepo.com, Generator: SVG Repo Mixer Tools -->
<!DOCTYPE svg PUBLIC "-//W3C//DTD SVG 1.1//EN" "http://www.w3.org/Graphics/SVG/1.1/DTD/svg11.dtd">
<svg height="800px" width="800px" version="1.1" id="Capa_1" xmlns="http://www.w3.org/2000/svg" xmlns:xlink="http://www.w3.org/1999/xlink" 
	 viewBox="0 0 309.166 309.166" xml:space="preserve">
<g>
	<path style="fill:#222220;" d="M105.603,195.204H60.654c-4.143,0-7.5,3.357-7.5,7.5s3.357,7.5,7.5,7.5h27.7L47.498,251.06
		c-2.929,2.93-2.929,7.678,0,10.607c1.465,1.464,3.384,2.196,5.304,2.196c1.919,0,3.839-0.732,5.304-2.196l39.997-39.996v25.982
		c0,4.143,3.357,7.5,7.5,7.5s7.5-3.357,7.5-7.5v-44.949C113.103,198.562,109.745,195.204,105.603,195.204z"/>
	<path style="fill:#222220;" d="M221.671,210.634h25.981c4.143,0,7.5-3.357,7.5-7.5s-3.357-7.5-7.5-7.5h-44.948
		c-4.143,0-7.5,3.357-7.5,7.5v44.948c0,4.143,3.357,7.5,7.5,7.5s7.5-3.357,7.5-7.5v-27.7l40.855,40.856
		c1.465,1.464,3.384,2.196,5.304,2.196c1.919,0,3.839-0.732,5.304-2.196c2.929-2.93,2.929-7.678,0-10.607L221.671,210.634z"/>
	<path style="fill:#222220;" d="M251.06,47.198l-39.997,39.997V61.212c0-4.143-3.357-7.5-7.5-7.5s-7.5,3.357-7.5,7.5v44.949
		c0,4.143,3.357,7.5,7.5,7.5h44.949c4.143,0,7.5-3.357,7.5-7.5s-3.357-7.5-7.5-7.5h-27.7l40.855-40.855
		c2.929-2.93,2.929-7.678,0-10.607C258.737,44.271,253.989,44.271,251.06,47.198z"/>
	<path style="fill:#222220;" d="M106.462,53.283c-4.143,0-7.5,3.357-7.5,7.5v27.7L58.105,47.627c-2.93-2.928-7.678-2.928-10.607,0
		c-2.929,2.93-2.929,7.678,0,10.607l39.997,39.997H61.513c-4.143,0-7.5,3.357-7.5,7.5s3.357,7.5,7.5,7.5h44.949
		c4.143,0,7.5-3.357,7.5-7.5V60.783C113.962,56.641,110.604,53.283,106.462,53.283z"/>
	<path style="fill:#222220;" d="M271.43,0H37.736C16.929,0,0,16.929,0,37.736V271.43c0,20.808,16.929,37.736,37.736,37.736H271.43
		c20.808,0,37.736-16.929,37.736-37.736V37.736C309.166,16.929,292.237,0,271.43,0z M294.166,271.43
		c0,12.537-10.199,22.736-22.736,22.736H37.736C25.199,294.166,15,283.967,15,271.43V37.736C15,25.199,25.199,15,37.736,15H271.43
		c12.537,0,22.736,10.199,22.736,22.736V271.43z"/>
</g>
</svg>